<svg xmlns="http://www.w3.org/2000/svg" version="1.1" viewBox="-5.0 -10.0 110.0 135.0">
 <path d="m39.363 90.098c-0.27344 0-0.54688-0.097656-0.76172-0.28516l-13.922-11.949c-0.32813-0.28125-0.47266-0.72266-0.38281-1.1406 0.26953-1.2109 1.832-7.5586 6.375-13.793 1.7344-2.3828 2.1172-7.3242 2.4258-11.297 0.089844-1.1719 0.17578-2.2812 0.29297-3.2656 0.066406-0.59375 0.57031-1.0352 1.1641-1.0352h3.2734c0.125 0 0.25 0.019531 0.37109 0.058594 3.2188 1.0703 6.9141 4.4531 6.2539 14.504-0.14844 2.2773 0.22656 4.0195 1.0625 4.9102 0.79297 0.84766 2.1172 1.0078 3.9453 0.51953 5.0039-1.3359 14.742-11.141 17.781-16.293 1.3047-2.2148 3.1836-3.5625 5.1602-3.6953l0.54688-0.003907c0.027343 0 0.058593 0 0.085937 0.003907 1.332 0.097656 2.4805 0.80859 3.1523 1.9453 0.94531 1.6016 0.85547 3.8125-0.25391 6.2266-4.4922 9.793-22.035 29.023-36.148 34.512-0.13672 0.054688-0.28125 0.078125-0.42578 0.078125zm-12.609-13.543 12.832 11.02c13.488-5.6172 29.953-23.742 34.219-33.047 0.76562-1.6719 0.89844-3.1523 0.36328-4.0586-0.34766-0.58594-0.875-0.75781-1.2695-0.79688h-0.42188c-1.0938 0.078125-2.3242 1.0273-3.2188 2.543-3.2266 5.4727-13.531 15.855-19.191 17.367-2.7305 0.73047-4.8594 0.31641-6.2617-1.1797-1.3008-1.3867-1.8828-3.6914-1.6914-6.6641 0.4375-6.6602-1.1133-10.828-4.4844-12.066h-2.0195c-0.0625 0.67188-0.11719 1.3906-0.17578 2.1406-0.34766 4.4922-0.74609 9.5781-2.8672 12.496-3.6992 5.0781-5.3164 10.344-5.8125 12.246z" fill-rule="evenodd"/>
 <path d="m80.645 49.672h-16.77c-0.41406 0-0.79688-0.21875-1.0078-0.57031-0.21094-0.35547-0.21875-0.79297-0.023438-1.1562l3.707-6.8555c0.20312-0.37891 0.60156-0.61328 1.0312-0.61328h16.277c0.39844 0 0.77344 0.20313 0.98828 0.54297 0.21484 0.33984 0.24219 0.76172 0.070313 1.125l-3.2148 6.8594c-0.19531 0.41016-0.60938 0.67578-1.0625 0.67578zm-14.805-2.3438h14.059l2.1172-4.5156h-13.734zm-11.141 2.3438h-0.015625-25.324c-0.45312 0-0.86719-0.26172-1.0625-0.67578l-3.2148-6.8594c-0.17188-0.36328-0.14453-0.78906 0.070313-1.125 0.21484-0.33984 0.58984-0.54297 0.98828-0.54297h20.938c0.28906 0 0.57031 0.10938 0.78516 0.30078l7.4883 6.7578c0.30859 0.21094 0.51172 0.56641 0.51172 0.96875 0 0.64453-0.52344 1.1719-1.1719 1.1719zm-24.598-2.3438h21.531l-5.0039-4.5156h-18.645l2.1133 4.5156z" fill-rule="evenodd"/>
 <path d="m79.707 42.816h-49.41c-0.64844 0-1.1719-0.52344-1.1719-1.1719 0-13.789 11.219-25.008 25.008-25.008h1.7422c13.789 0 25.008 11.219 25.008 25.008 0 0.64844-0.52344 1.1719-1.1719 1.1719zm-48.207-2.3438h47.008c-0.61328-11.953-10.527-21.492-22.633-21.492h-1.7422c-12.102 0-22.02 9.5352-22.633 21.492z" fill-rule="evenodd"/>
 <path d="m79.164 37.773h-48.328c-0.64844 0-1.1719-0.52344-1.1719-1.1719 0-0.64844 0.52344-1.1719 1.1719-1.1719h48.328c0.64844 0 1.1719 0.52344 1.1719 1.1719 0 0.64844-0.52344 1.1719-1.1719 1.1719z" fill-rule="evenodd"/>
 <path d="m51.988 19.078c-0.29297 0-0.57422-0.10938-0.79297-0.30469-0.24219-0.22266-0.38281-0.53516-0.38281-0.86328v-4.582c0-2.1602 1.7578-3.918 3.918-3.918 2.1602 0 3.918 1.7578 3.918 3.918v4.543c0 0.32422-0.13672 0.63672-0.37109 0.85547-0.23828 0.22266-0.55469 0.33594-0.87891 0.3125-0.50391-0.035156-1.0156-0.054687-1.5273-0.054687h-1.7422c-0.66406 0-1.3477 0.03125-2.0391 0.09375-0.035156 0-0.066406 0.003906-0.10156 0.003906zm2.7461-7.3281c-0.86719 0-1.5742 0.70703-1.5742 1.5742v3.332c0.32812-0.011719 0.65234-0.019531 0.97266-0.019531h1.7422c0.14453 0 0.28906 0 0.43359 0.003906v-3.3164c0-0.86719-0.70312-1.5742-1.5742-1.5742z" fill-rule="evenodd"/>
 <path d="m60.863 55.246c-0.28906 0-0.56641-0.10547-0.78516-0.30078l-13.777-12.434c-0.35938-0.32422-0.48438-0.83984-0.30859-1.2891 0.17578-0.45312 0.60937-0.75 1.0938-0.75h20.496c0.41406 0 0.79688 0.21875 1.0078 0.57031 0.21094 0.35547 0.21875 0.79297 0.023437 1.1562l-6.7188 12.434c-0.17188 0.31641-0.47656 0.53516-0.83203 0.59766-0.066406 0.011719-0.13281 0.015625-0.19922 0.015625zm-10.73-12.434 10.406 9.3906 5.0781-9.3906z" fill-rule="evenodd"/>
 <path d="m35.766 100c-0.27734 0-0.55078-0.10156-0.76172-0.28516l-19.625-16.848c-0.23438-0.20313-0.38281-0.49219-0.40625-0.80078-0.023437-0.30859 0.078125-0.61719 0.28125-0.85156l6.418-7.4766c0.42188-0.49219 1.1602-0.54688 1.6523-0.125l19.625 16.848c0.49219 0.42187 0.54688 1.1641 0.125 1.6523l-6.418 7.4766c-0.20312 0.23438-0.49219 0.38281-0.80078 0.40625-0.03125 0.003906-0.058594 0.003906-0.089844 0.003906zm-17.973-18.145 17.848 15.324 4.8906-5.6992-17.848-15.32-4.8906 5.6992z" fill-rule="evenodd"/>
 <path d="m35.66 93.41c-0.27344 0-0.54688-0.09375-0.76953-0.28906l-2.6562-2.3164c-0.48828-0.42578-0.53906-1.1641-0.11328-1.6523 0.42578-0.48828 1.1641-0.53906 1.6523-0.11328l2.6562 2.3164c0.48828 0.42578 0.53906 1.1641 0.11328 1.6523-0.23047 0.26563-0.55859 0.40234-0.88281 0.40234z" fill-rule="evenodd"/>
 <path d="m47.656 14.957c-0.64844 0-1.1719-0.52344-1.1719-1.1719v-5.7812c0-0.64844 0.52344-1.1719 1.1719-1.1719s1.1719 0.52344 1.1719 1.1719v5.7812c0 0.64844-0.52344 1.1719-1.1719 1.1719z" fill-rule="evenodd"/>
 <path d="m54.734 7c-0.64844 0-1.1719-0.52344-1.1719-1.1719v-4.6562c0-0.64844 0.52734-1.1719 1.1719-1.1719s1.1719 0.52344 1.1719 1.1719v4.6562c0 0.64844-0.52344 1.1719-1.1719 1.1719z" fill-rule="evenodd"/>
 <path d="m61.809 14.957c-0.64844 0-1.1719-0.52344-1.1719-1.1719v-5.7812c0-0.64844 0.52734-1.1719 1.1719-1.1719 0.64453 0 1.1719 0.52344 1.1719 1.1719v5.7812c0 0.64844-0.52344 1.1719-1.1719 1.1719z" fill-rule="evenodd"/>
 <path d="m44.77 87.449c-0.27344 0-0.54688-0.09375-0.76953-0.28906l-17.371-15.164c-0.48828-0.42578-0.53906-1.168-0.11328-1.6523 0.42578-0.48828 1.168-0.53516 1.6523-0.11328l17.371 15.164c0.48828 0.42578 0.53906 1.168 0.11328 1.6523-0.23047 0.26562-0.55859 0.40234-0.88281 0.40234z" fill-rule="evenodd"/>
<text x="0.0" y="117.5" font-size="5.0" font-weight="bold" font-family="Arbeit Regular, Helvetica, Arial-Unicode, Arial, Sans-serif" fill="#000000">Created by Amir Ali</text><text x="0.0" y="122.5" font-size="5.0" font-weight="bold" font-family="Arbeit Regular, Helvetica, Arial-Unicode, Arial, Sans-serif" fill="#000000">from Noun Project</text></svg>
