<svg xmlns="http://www.w3.org/2000/svg" version="1.1" viewBox="-5.0 -10.0 110.0 135.0">
 <path d="m48.527 48.527c-0.8125 0.8125-0.8125 2.1328 0 2.9453 0.40625 0.40625 0.94141 0.60938 1.4727 0.60938s1.0664-0.20312 1.4727-0.60938l10.012-10.012c0.33203 0.085937 0.65625 0.20312 1.0156 0.20312h12.496c1.1055 0 2.1641-0.4375 2.9453-1.2188l12.383-12.383c0.82812-0.76172 1.3477-1.8516 1.3477-3.0625 0-2.3008-1.8555-4.1641-4.1562-4.1641h-8.3516v-8.332c0-1.6836-1.0156-3.2031-2.5703-3.8477-0.51562-0.21484-1.0586-0.31641-1.5938-0.31641-1.0859 0-2.1484 0.42188-2.9453 1.2188l-12.5 12.5c-0.78125 0.78125-1.2188 1.8398-1.2188 2.9453v12.496c0 0.35938 0.11719 0.68359 0.20312 1.0156zm13.969-23.523 12.496-12.496v12.496h12.496l-12.492 12.5h-12.496v-12.5zm-12.496 2.1797c0 1.0781-0.82031 1.9727-1.8945 2.0703-10.879 0.98047-19.348 10.328-18.922 21.559 0.41016 10.797 9.207 19.594 20.004 20.004 11.23 0.42578 20.574-8.0391 21.559-18.922 0.097656-1.0742 0.99219-1.8945 2.0703-1.8945h0.003906c1.2148 0 2.1836 1.0391 2.0742 2.25-1.1758 13.121-12.531 23.355-26.09 22.719-12.793-0.59766-23.176-10.98-23.773-23.773-0.63672-13.559 9.5977-24.914 22.719-26.09 1.2109-0.10938 2.25 0.85938 2.25 2.0742zm41.148 16.484c0.33203 2.0625 0.51562 4.1758 0.51562 6.332 0 23.52-19.59 42.547-43.309 41.629-21.625-0.83594-39.148-18.359-39.984-39.984-0.91797-23.719 18.109-43.305 41.629-43.305 2.1562 0 4.2656 0.18359 6.3281 0.51172 1.668 0.26953 2.3164 2.3281 1.1211 3.5234-0.46484 0.46484-1.1211 0.6875-1.7734 0.58594-1.8516-0.28906-3.7422-0.46094-5.6797-0.46094-20.707 0-37.496 16.785-37.496 37.492 0 20.691 16.805 37.496 37.496 37.496 20.707 0 37.496-16.785 37.496-37.496 0-1.9336-0.17188-3.8281-0.46094-5.6797-0.10156-0.64844 0.12109-1.3086 0.58594-1.7734 1.1992-1.1875 3.2617-0.53906 3.5312 1.1289zm-45.312 6.4492c0.058593 2.1758 1.8711 3.9844 4.0469 4.0469 1.8828 0.050782 3.4961-1.1484 4.0664-2.8242 0.27344-0.82031 1.082-1.3398 1.9453-1.3398 1.4141 0 2.4453 1.3906 1.9805 2.7266-1.1797 3.3945-4.4922 5.7969-8.3281 5.5938-4.2031-0.22266-7.6445-3.6641-7.8672-7.8672-0.20313-3.8359 2.1992-7.1484 5.5938-8.3281 1.3359-0.46484 2.7266 0.56641 2.7266 1.9805 0 0.86328-0.51953 1.6719-1.3398 1.9453-1.6797 0.57031-2.8789 2.1836-2.8242 4.0664z"/>
<text x="0.0" y="117.5" font-size="5.0" font-weight="bold" font-family="Arbeit Regular, Helvetica, Arial-Unicode, Arial, Sans-serif" fill="#000000">Created by Skena Grafis</text><text x="0.0" y="122.5" font-size="5.0" font-weight="bold" font-family="Arbeit Regular, Helvetica, Arial-Unicode, Arial, Sans-serif" fill="#000000">from Noun Project</text></svg>
