<svg xmlns="http://www.w3.org/2000/svg" version="1.1" viewBox="-5.0 -10.0 110.0 135.0">
 <path d="m47.09 96.547c-0.22656 0-0.45703-0.054687-0.66406-0.16016-0.48438-0.25-0.78906-0.75-0.78906-1.2969v-3.0078c-10.418-0.70703-20.105-5.207-27.41-12.754-7.6484-7.9062-11.863-18.324-11.863-29.328 0-9.1172 2.8633-17.793 8.2734-25.098 5.3086-7.1562 12.574-12.371 21.016-15.078 0.75781-0.24219 1.5703 0.16797 1.8242 0.92578l1.8438 5.5234c0.125 0.37109 0.09375 0.77344-0.082031 1.1211-0.17578 0.34766-0.48438 0.60938-0.85547 0.72656-13.93 4.4336-23.293 17.246-23.293 31.879 0 17.496 13.297 31.855 30.547 33.328v-2.7812c0-0.54297 0.30469-1.043 0.78906-1.293s1.0664-0.20703 1.5117 0.10938l10.184 7.2734c0.38281 0.27344 0.60938 0.71484 0.60938 1.1836s-0.22656 0.91016-0.60938 1.1836l-10.184 7.2734c-0.25391 0.17578-0.55078 0.26953-0.84766 0.26953zm-11.906-83.488c-15.559 5.6094-25.91 20.277-25.91 36.941 0 21.262 16.633 38.504 37.867 39.25 0.78125 0.027344 1.4023 0.67188 1.4023 1.4531v1.5625l6.2266-4.4492-6.2227-4.4453v1.5078c0 0.39453-0.16016 0.77344-0.44922 1.0508-0.28516 0.27344-0.67188 0.42187-1.0664 0.40234-9.3906-0.38281-18.16-4.3359-24.691-11.121-6.5508-6.8086-10.156-15.762-10.156-25.211 0-7.8711 2.4727-15.359 7.1523-21.66 4.293-5.7773 10.07-10.086 16.77-12.516z"/>
 <path d="m63.898 90.242c-0.60938 0-1.1758-0.38672-1.3789-0.99609l-1.8438-5.5234c-0.125-0.36719-0.09375-0.77344 0.082031-1.1211 0.17578-0.34766 0.48438-0.60937 0.85547-0.72656 13.934-4.4297 23.297-17.242 23.297-31.875 0-17.496-13.297-31.855-30.547-33.328v2.7812c0 0.54297-0.30469 1.043-0.78906 1.293s-1.0664 0.20703-1.5117-0.10938l-10.184-7.2734c-0.37891-0.26953-0.60547-0.71094-0.60547-1.1797s0.22656-0.91016 0.60937-1.1836l10.184-7.2734c0.44141-0.31641 1.0273-0.35937 1.5117-0.10937 0.48047 0.24609 0.78516 0.74609 0.78516 1.293v3.0078c10.418 0.70703 20.105 5.207 27.41 12.754 7.6484 7.9102 11.863 18.324 11.863 29.328 0 9.1172-2.8633 17.793-8.2734 25.098-5.3086 7.1562-12.574 12.371-21.016 15.078-0.15234 0.046875-0.30078 0.066407-0.44922 0.066407zm-0.003907-6.0625 0.92188 2.7617c15.559-5.6094 25.91-20.277 25.91-36.941 0-21.262-16.633-38.504-37.867-39.25-0.78125-0.027344-1.4023-0.67188-1.4023-1.4531v-1.5625l-6.2266 4.4492 6.2227 4.4453v-1.5078c0-0.39453 0.16016-0.77344 0.44922-1.0508 0.28516-0.27344 0.66797-0.42187 1.0664-0.40234 9.3906 0.38281 18.16 4.3359 24.691 11.121 6.5508 6.8086 10.156 15.762 10.156 25.211 0 7.8711-2.4727 15.359-7.1523 21.66-4.293 5.7812-10.066 10.086-16.77 12.52z"/>
 <path d="m50 76.184c-14.438 0-26.184-11.746-26.184-26.184s11.746-26.184 26.184-26.184 26.184 11.746 26.184 26.184-11.746 26.184-26.184 26.184zm0-49.457c-12.832 0-23.273 10.441-23.273 23.273s10.441 23.273 23.273 23.273 23.273-10.441 23.273-23.273-10.441-23.273-23.273-23.273z"/>
 <path d="m54.363 67.453h-8.7266c-0.80469 0-1.4531-0.65234-1.4531-1.4531v-10.184h-10.184c-0.80469 0-1.4531-0.65234-1.4531-1.4531v-8.7266c0-0.80469 0.65234-1.4531 1.4531-1.4531h10.184v-10.184c0-0.80469 0.65234-1.4531 1.4531-1.4531h8.7266c0.80469 0 1.4531 0.65234 1.4531 1.4531v10.184h10.184c0.80469 0 1.4531 0.65234 1.4531 1.4531v8.7266c0 0.80469-0.65234 1.4531-1.4531 1.4531h-10.184v10.184c0 0.80469-0.64844 1.4531-1.4531 1.4531zm-7.2734-2.9062h5.8164v-10.184c0-0.80469 0.65234-1.4531 1.4531-1.4531h10.184v-5.8164h-10.184c-0.80469 0-1.4531-0.65234-1.4531-1.4531v-10.184h-5.8164v10.184c0 0.80469-0.65234 1.4531-1.4531 1.4531h-10.184v5.8164h10.184c0.80469 0 1.4531 0.65234 1.4531 1.4531z"/>
<text x="0.0" y="117.5" font-size="5.0" font-weight="bold" font-family="Arbeit Regular, Helvetica, Arial-Unicode, Arial, Sans-serif" fill="#000000">Created by SAM Designs</text><text x="0.0" y="122.5" font-size="5.0" font-weight="bold" font-family="Arbeit Regular, Helvetica, Arial-Unicode, Arial, Sans-serif" fill="#000000">from Noun Project</text></svg>